<svg xmlns="http://www.w3.org/2000/svg" xmlns:xlink="http://www.w3.org/1999/xlink" preserveAspectRatio="xMidYMid meet" version="1.0" viewBox="-0.3 -0.2 582.1 130.3" zoomAndPan="magnify" style="fill: rgb(0, 0, 0);" original_string_length="2612" width="1600px" height="357.388px"><g id="__id49_sn8dvz6sfj"><path d="M570.5,60.9c-1.2-1.2-2.5-2.5-3.8-3.7c-1.4-1.2-2.9-2.3-4.2-3.6c-1.6-1.7-3.6-2.4-5.7-3.3 c-4.4-1.8-8.3-2-12.5,1c-3.2,2.3-7.3,3.4-10.4,6.3c-3,2.8-6.1,5-7.2,9.4c-0.8,3.1-3.3,5.7-5,8.6c-0.8,1.4-2,2.2-3.5,2.5 c-3.3,0.8-6.1,2.3-8.4,5c-2.9,3.5-6,6.6-6.5,11.4c-0.3,3-2,4.7-5,5c-2.9,0.4-5.9,0.5-8.8,1c-0.9,0.2-1.9,1.1-2.4,1.9 c-0.7,1.3,0.2,3.1,1.6,3.6c1.4,0.5,2.9,0.8,4.2,1.4c0.5,0.2,0.7,1.2,1,1.8c0,0-0.6,0.4-0.9,0.5c-1.5,0.2-3.2,0-4.4,0.6 c-3.2,1.8-6.4,1.4-9.7,0.9c-3.7-0.5-7.3-0.9-11-1.1c-1.5-0.1-2.9,0.5-3.5,2.1c-0.6,1.5,0.4,3.8,2.2,4.6c2,0.9,4.1,1.7,6.2,2.4 c3.2,1,6.4,1.7,9.6,2.6c0.9,0.2,1.4,0.9,0.9,1.7c-0.3,0.5-1.2,1-1.8,0.9c-8.1-0.7-16.3-1.4-24.4-2.2c-2.3-0.2-4.7-0.3-6.4,1.3 c-2.5,2.3-5.4,2.1-8.3,2.1c-7.8-0.1-15.6-0.1-23.4-0.1c-2.2,0-4.4,0.1-6.4,1.5c-4.2,3-9,3.1-13.8,2.4c-2.2-0.3-4.4-1-6.6-1.1 c-9.3-0.4-18.5-0.7-27.8-1.1c-3-0.1-5.9-0.6-8.8-1c-7-1-14-1.1-21.1-1.1c-11.8,0.1-23.7-0.2-35.5,0.1c-11.5,0.3-22.9-0.8-34.4,0.2 c-7.7,0.6-15.6,0-23.3,0.8c-8.8,1-17.7,0.2-26.5,0.5c-7.8,0.3-15.5-0.3-23.3-1c-2.9-0.3-5.9,0-8.9,0c-2.2,0-4.6,0.4-6.6-0.3 c-4.7-1.6-9.5-1.2-14.3-1.3c-6.7-0.1-13.3-0.3-20-0.7c-3.7-0.2-7.4-0.5-11.1,0c-2.1,0.3-4.4-0.1-6.6-0.4c-1.5-0.1-3.1-1-4.3-0.6 c-5.3,1.8-10.4,0-15.3-1.3c-6.1-1.6-12.6-1.1-18.4-3.9c-6.1,0-11.5-2.7-17-5c-3.3-1.4-6.4-1.7-9.6-0.1c-2,1-4.2,1.4-6.2,2.5 c-4.6,2.5-9.5,0.7-14.2,1.1c-0.3,0-0.8-0.1-1.1-0.3c-5.1-3.9-11.2-3.2-17.1-3.6c-1.1-0.1-2.2-0.5-3.1-1.1c-4.4-3-7.6-6.8-9-12.2 C6.2,87.7,3.2,77,0.4,66.3c-0.6-2.2-0.7-4.5,0.7-6.4c2.9-3.8,3.2-8.2,3.4-12.7c0.1-2.7,0.7-5,2.6-7.1c2.4-2.5,2.9-5.9,4-9 c5.1-14.1,1.2-10.4,15-14.8c2.5-0.8,5.1-1.1,7.6-1.5C51.4,11.6,69,8.8,86.6,6.5c8.8-1.1,17.8-1.6,26.7-0.4c7.4,1,14.7,1.6,22.1,1.9 c2.2,0.1,4.4-0.2,6.6-0.3c1.8-0.1,3.7-0.5,5.5-0.2c4.8,0.6,9.6,0.7,14.4-0.5c1.1-0.3,2.3-0.5,3.3-0.2c6.3,1.6,12.5-0.2,18.8-0.8 c5.5-0.5,10.9-2.4,16.5-1.1c1.3,0.3,2.9-0.4,4.4-0.6c2.6-0.3,5.3-1,7.7-0.6c10.4,1.7,20.7-0.6,31.1-0.5c5.5,0,11.1-0.2,16.6-0.7 c8.4-0.7,17,0.5,25.3-2.3c1.3-0.4,3-0.4,4.4-0.2c10.7,1.7,21.5,1.5,32.2,1.1c17.1-0.6,34.1-0.2,51.2,0c17.2,0.2,34,2.6,50.5,7.3 c10.4,2.9,21.1,3.9,31.6,6.2c7.6,1.6,15.4,1.8,22.9,4.1c0.7,0.2,1.4,0.5,2.2,0.5c16.1,0.9,31.2,6.3,46.7,9.7 c3.2,0.7,6.4,1.7,9.7,2.2c4.3,0.7,8.8,1.4,12.4,4.3c4.8-1,8.5,2.2,12.5,3.6c4.2,1.5,8.1,3.6,12,5.6c1.6,0.8,3,2.2,4.3,3.5 c3.6,3.3,3,7.7-1.4,9.9C575,59.2,572.9,59.9,570.5,60.9z" style="fill: rgb(57, 104, 166);"/></g></svg>