<svg xmlns="http://www.w3.org/2000/svg" xmlns:xlink="http://www.w3.org/1999/xlink" preserveAspectRatio="xMidYMid meet" version="1.0" viewBox="24.3 201.3 440.8 111.4" zoomAndPan="magnify" style="fill: rgb(0, 0, 0);" original_string_length="2087" width="220.1513735291742px" height="55.237980994592796px"><g id="__id51_slvs61654" style="fill: rgb(218, 241, 255);"><path d="M462.8,235.8c-3.2-2.2-6.5-4.4-9.7-6.5c-1.9-1.2-3.5-2.5-4.5-4.8c-2.5-6-3.9-13.1-11.3-15.6 c-0.5-0.2-1.1-0.9-1.2-1.5c-1.5-4.4-5.3-4.5-8.9-4.3c-6.9,0.3-13.7-0.4-20.5-0.8c-8.5-0.4-16.9-0.7-25.4-0.9 c-3.9-0.1-7.9,0-10.7,3.5c-5.1,1.2-10.2,1.7-15.5,1.5c-16.9-0.3-33.8-0.7-50.7-0.6c-12,0-24,1-35.9,3c-3.3,0.5-6,2.7-9.3,2.6 c-10.4-0.2-20.4,3.6-30.8,3.6c-2.5,0-5,1.3-7.5,2c-9.8-0.9-19.4,0-29.1,2c-6.7,1.4-13.4,2.5-20.2,3.5c-17.1,2.4-34.1,4.7-51.2,7.1 c-2.9,0.4-6.2,0.6-8.4,2.1c-6.5,4.3-14,4.9-21.1,6.9c-0.9,0.3-2.3-0.2-2.6,1.4c3.1,1.2,6.7-0.9,9.4,1.7c-1.5,4.2-5.8,3-8.7,4.4 c-2,0.9-4.4,1.1-6.6,1.7c-14.5,3.7-29,7.3-43.5,11.1c-3.3,0.9-7.2,1.4-6.6,6.6c0.1,0.8-1.4,2.1-2.4,2.8c-1.3,0.9-2.9,1.4-4.3,2.3 c-1.3,0.8-0.7,3.4,0.8,4c1.2,0.5,2.4,1,3.7,1c3.6,0.2,7-0.5,10.5-1.4c10-2.6,20.1-5.5,30.7-2.7c1.5,0.4,3.3,0.3,4.8-0.2 c4.8-1.5,9.7-0.9,14.5-1.3c-1.7,0.9-3.4,1.7-5.1,2.6c-2.3,1.2-3.5,2.8-1.2,5.2c1.4,1.4-0.1,1.6-0.8,1.7c-3.6,0.7-6.5,2.3-7.7,5.9 c1.3-0.1,2.6-0.2,4-0.3c-1.3,0.1-2.7,0.2-4,0.3c-0.2,0.6-0.3,1.3-0.5,1.9c-0.6,0.1-1.3,0.2-1.8,0.4c-2.3,1.2-2.3,1.6,0.1,3.7 c0.1,0.7,0.2,1.4,0.2,2.1c0.2,1.2,0.3,2.5,0.5,3.7c0,0,0,0,0,0c-0.7,2.1-1.4,4.2-2.1,6.3c9,6.8,11.9,7.8,23.2,7.9 c3.2,0,6.5,0.3,9.6,0.8c1.9,0.3,3.8,0.5,5.7,0.1c9.5-2,19.2-2.6,28.8-3.6c1.6-0.2,3.2-0.4,4.4-1.7c3.6-0.2,7.2-0.2,10.7-0.5 c12-1.1,23.9-2.5,35.9-3.5c12.9-1.1,25.9-1.9,38.9-3c22.7-1.8,45.3-4.3,68-5.2c12-0.5,24-1.2,36-2c9.1-0.6,18.1-1.6,27.2-2.5 c3.5,1.3,6.5,0.8,8.8-2.3c3.1-0.1,6.2-0.3,9.3-0.4c3.9,1.8,7.8,1.5,11.8,0.2c3.3,0.3,6.5,0.5,9.8,0.8c6.7,2.2,13.5,1.3,20.3,1.1 c1.6,0,3.1-0.9,4.6-1.4c3.8-1.2,6.3-3.3,5.5-7.8c-0.3-2.1,0.7-3.6,1.6-5.4c3-5.9,7.3-9.8,14.1-10.6c2-0.2,4.1-0.6,5.1-2.4 c3.1-5.7,7.4-10.5,11.2-15.6c1.1-1.5,1.1-3.7,1.7-5.5C465.1,238.8,464.7,237.1,462.8,235.8z" style="fill: inherit;"/><path d="M27.7 262.9L27.4 263.3 27.9 263.4z" style="fill: inherit;"/></g></svg>