<svg xmlns="http://www.w3.org/2000/svg" xmlns:xlink="http://www.w3.org/1999/xlink" preserveAspectRatio="xMidYMid meet" version="1.0" viewBox="258.5 729.7 570.6 800.9" zoomAndPan="magnify" style="fill: rgb(0, 0, 0);" original_string_length="3305" width="64.07206233648452px" height="89.88042369794061px"><g style="fill: rgb(0, 25, 59);"><g id="__id57_s0vde68v9"><path d="M546.70276,1069.4363Q586.4744,1069.4363,623.72217,1089.9022L623.71594,1089.9022Q664.54944,1114.4187,678.527,1159.8821L678.5202,1159.8821Q692.44556,1213.6074,672.922,1246.7196L672.9153,1246.7196Q660.3392,1261.3744,646.49786,1261.3744Q634.69464,1261.3744,621.9714,1250.7177Q601.35736,1233.4519,578.03284,1191.7744L578.0294,1191.7744Q547.4463,1133.973,546.58936,1069.4364L546.58386,1069.4364Q546.6433,1069.4363,546.70276,1069.4363 Z M814.83014,757.09204C813.77484,757.09204,812.7016,757.24774,811.6404,757.5749Q576.8262,829.966,534.896,985.8898C534.8729,985.97565,534.85065,986.0625,534.8297,986.1489Q527.06305,1018.1682,525.3697,1048.8555L525.36444,1048.8555Q473.19473,1055.1168,417.77136,1091.9668C417.57938,1092.0945,417.39185,1092.228,417.2084,1092.3677Q258.53043,1213.1648,300.54102,1521.285C301.2804,1526.7078,305.91928,1530.6405,311.24353,1530.6405C311.73016,1530.6405,312.22253,1530.6077,312.71817,1530.54C318.63647,1529.7332,322.7801,1524.2812,321.97314,1518.3629Q281.70728,1223.0391,430.0069,1109.8098L430.0026,1109.8098Q479.0894,1077.2355,524.9351,1070.943L524.94037,1070.943Q526.10364,1139.8867,558.9103,1201.8904C558.9489,1201.9634,558.989,1202.0372,559.0293,1202.1093Q584.3636,1247.4337,608.08246,1267.2999Q628.364,1284.2872,647.166,1284.2872Q669.6717,1284.2872,690.05743,1259.9481C690.4136,1259.523,690.7365,1259.0709,691.0233,1258.5962Q715.89325,1217.4303,699.35504,1154.0565C699.3164,1153.9086,699.27466,1153.7614,699.2298,1153.6151Q682.7838,1100.0138,634.5843,1071.1982C634.47314,1071.1318,634.3619,1071.068,634.2484,1071.0056Q591.9275,1047.7192,547.145,1047.5748L547.1396,1047.5748Q548.8674,1020.12915,555.78784,991.50696L555.7843,991.50696Q594.6127,847.1176,818.01294,778.2453C823.7209,776.4856,826.9216,770.43176,825.16187,764.7238C823.7293,760.0771,819.451,757.09204,814.83014,757.09204 Z" style="fill: inherit;"/></g><g id="__id58_s0vde68v9"><path d="M696.4494,729.7255Q694.62836,729.7255,692.9533,729.7819C686.98364,729.9829,682.3071,734.9852,682.5081,740.9549C682.70496,746.8006,687.5058,751.4063,693.31055,751.4063C693.4336,751.4063,693.5571,751.40424,693.6811,751.4001Q695.0646,751.3535,696.57794,751.3535Q711.68695,751.3535,739.738,755.9959L739.7306,755.9959L797.9139,769.6846L797.9139,769.6846L805.7601,772.1193L805.752,772.1193Q802.8607,783.65173,789.7424,812.1012L789.73444,812.1012L749.9797,878.82574C746.9224,883.9571,748.60376,890.59534,753.7351,893.6526C755.4702,894.68634,757.3776,895.17834,759.26056,895.17834C762.9463,895.17834,766.53845,893.2934,768.56195,889.89716L808.6426,822.6257C808.8358,822.3014,809.012,821.9669,809.1703,821.6242Q829.1306,778.4002,828.121,764.7936L828.1203,764.78394Q828.1168,764.7378,828.1117,764.6733L828.11145,764.6698C827.9934,763.1947,827.574,761.7595,826.87897,760.45306Q824.1594,755.3408,818.6212,753.4661C818.5341,753.43665,818.4467,753.40826,818.3589,753.38104L803.9633,748.91394C803.7229,748.83936,803.4799,748.77313,803.23486,748.71545L744.3147,734.8534C744.0813,734.79846,743.8457,734.7512,743.60913,734.712Q713.57367,729.7255,696.4494,729.7255 Z" style="fill: inherit;"/></g></g></svg>